<?xml version="1.0" encoding="UTF-8" standalone="no"?>
<!-- Created with Inkscape (http://www.inkscape.org/) -->

<svg
   xmlns:dc="http://purl.org/dc/elements/1.1/"
   xmlns:cc="http://creativecommons.org/ns#"
   xmlns:rdf="http://www.w3.org/1999/02/22-rdf-syntax-ns#"
   xmlns:svg="http://www.w3.org/2000/svg"
   xmlns="http://www.w3.org/2000/svg"
   xmlns:xlink="http://www.w3.org/1999/xlink"
   xmlns:sodipodi="http://sodipodi.sourceforge.net/DTD/sodipodi-0.dtd"
   xmlns:inkscape="http://www.inkscape.org/namespaces/inkscape"
   width="1024"
   height="768"
   id="svg2"
   version="1.1"
   inkscape:version="0.48.3.1 r9886"
   sodipodi:docname="Balls.svg"
   inkscape:export-filename="/home/jhc/dev/CatchMe/Resources/Balls.png"
   inkscape:export-xdpi="90"
   inkscape:export-ydpi="90">
  <defs
     id="defs4">
    <linearGradient
       inkscape:collect="always"
       id="linearGradient3857">
      <stop
         style="stop-color:#ffffff;stop-opacity:1"
         offset="0"
         id="stop3859" />
      <stop
         style="stop-color:#cc00ff;stop-opacity:1"
         offset="1"
         id="stop3861" />
    </linearGradient>
    <linearGradient
       id="linearGradient3847"
       inkscape:collect="always">
      <stop
         id="stop3849"
         offset="0"
         style="stop-color:#ffffff;stop-opacity:1" />
      <stop
         id="stop3851"
         offset="1"
         style="stop-color:#0055d4;stop-opacity:1" />
    </linearGradient>
    <linearGradient
       inkscape:collect="always"
       id="linearGradient3837">
      <stop
         style="stop-color:#ffffff;stop-opacity:1"
         offset="0"
         id="stop3839" />
      <stop
         style="stop-color:#917c6f;stop-opacity:1"
         offset="1"
         id="stop3841" />
    </linearGradient>
    <linearGradient
       id="linearGradient3823"
       inkscape:collect="always">
      <stop
         id="stop3825"
         offset="0"
         style="stop-color:#ffffff;stop-opacity:1" />
      <stop
         id="stop3827"
         offset="1"
         style="stop-color:#ff6600;stop-opacity:1" />
    </linearGradient>
    <linearGradient
       inkscape:collect="always"
       id="linearGradient3813">
      <stop
         style="stop-color:#ffffff;stop-opacity:1"
         offset="0"
         id="stop3815" />
      <stop
         style="stop-color:#ffcc00;stop-opacity:1"
         offset="1"
         id="stop3817" />
    </linearGradient>
    <linearGradient
       id="linearGradient3803"
       inkscape:collect="always">
      <stop
         id="stop3805"
         offset="0"
         style="stop-color:#ffffff;stop-opacity:1" />
      <stop
         id="stop3807"
         offset="1"
         style="stop-color:#800000;stop-opacity:1" />
    </linearGradient>
    <linearGradient
       inkscape:collect="always"
       id="linearGradient3783">
      <stop
         style="stop-color:#ffffff;stop-opacity:1"
         offset="0"
         id="stop3785" />
      <stop
         style="stop-color:#008080;stop-opacity:1"
         offset="1"
         id="stop3787" />
    </linearGradient>
    <radialGradient
       inkscape:collect="always"
       xlink:href="#linearGradient3783"
       id="radialGradient3797"
       gradientUnits="userSpaceOnUse"
       gradientTransform="matrix(0.7791466,0.61903101,-0.84134608,1.0589645,314.49138,-113.20492)"
       cx="151.04596"
       cy="334.14594"
       fx="151.04596"
       fy="334.14594"
       r="18.696629" />
    <radialGradient
       inkscape:collect="always"
       xlink:href="#linearGradient3803"
       id="radialGradient3801"
       gradientUnits="userSpaceOnUse"
       gradientTransform="matrix(0.7791466,0.61903101,-0.84134608,1.0589645,314.49138,-113.20492)"
       cx="151.04596"
       cy="334.14594"
       fx="151.04596"
       fy="334.14594"
       r="18.696629" />
    <radialGradient
       inkscape:collect="always"
       xlink:href="#linearGradient3813"
       id="radialGradient3811"
       gradientUnits="userSpaceOnUse"
       gradientTransform="matrix(0.7791466,0.61903101,-0.84134608,1.0589645,314.49138,-113.20492)"
       cx="151.04596"
       cy="334.14594"
       fx="151.04596"
       fy="334.14594"
       r="18.696629" />
    <radialGradient
       inkscape:collect="always"
       xlink:href="#linearGradient3823"
       id="radialGradient3821"
       gradientUnits="userSpaceOnUse"
       gradientTransform="matrix(0.7791466,0.61903101,-0.84134608,1.0589645,314.49138,-113.20492)"
       cx="151.04596"
       cy="334.14594"
       fx="151.04596"
       fy="334.14594"
       r="18.696629" />
    <radialGradient
       inkscape:collect="always"
       xlink:href="#linearGradient3837"
       id="radialGradient3835"
       gradientUnits="userSpaceOnUse"
       gradientTransform="matrix(0.7791466,0.61903101,-0.84134608,1.0589645,314.49138,-113.20492)"
       cx="151.04596"
       cy="334.14594"
       fx="151.04596"
       fy="334.14594"
       r="18.696629" />
    <radialGradient
       inkscape:collect="always"
       xlink:href="#linearGradient3847"
       id="radialGradient3845"
       gradientUnits="userSpaceOnUse"
       gradientTransform="matrix(0.7791466,0.61903101,-0.84134608,1.0589645,314.49138,-113.20492)"
       cx="151.04596"
       cy="334.14594"
       fx="151.04596"
       fy="334.14594"
       r="18.696629" />
    <radialGradient
       inkscape:collect="always"
       xlink:href="#linearGradient3857"
       id="radialGradient3855"
       gradientUnits="userSpaceOnUse"
       gradientTransform="matrix(0.7791466,0.61903101,-0.84134608,1.0589645,314.49138,-113.20492)"
       cx="151.04596"
       cy="334.14594"
       fx="151.04596"
       fy="334.14594"
       r="18.696629" />
  </defs>
  <sodipodi:namedview
     id="base"
     pagecolor="#ffffff"
     bordercolor="#666666"
     borderopacity="1.0"
     inkscape:pageopacity="0.0"
     inkscape:pageshadow="2"
     inkscape:zoom="1.0429688"
     inkscape:cx="512"
     inkscape:cy="384"
     inkscape:document-units="px"
     inkscape:current-layer="layer1"
     showgrid="false"
     showguides="true"
     inkscape:guide-bbox="true"
     inkscape:window-width="1669"
     inkscape:window-height="999"
     inkscape:window-x="0"
     inkscape:window-y="24"
     inkscape:window-maximized="1"
     inkscape:snap-global="false">
    <sodipodi:guide
       orientation="0,1"
       position="67.415736,120.09989"
       id="guide3884" />
    <sodipodi:guide
       orientation="1,0"
       position="79.900132,120.09989"
       id="guide3886" />
  </sodipodi:namedview>
  <metadata
     id="metadata7">
    <rdf:RDF>
      <cc:Work
         rdf:about="">
        <dc:format>image/svg+xml</dc:format>
        <dc:type
           rdf:resource="http://purl.org/dc/dcmitype/StillImage" />
        <dc:title></dc:title>
      </cc:Work>
    </rdf:RDF>
  </metadata>
  <g
     inkscape:label="Layer 1"
     inkscape:groupmode="layer"
     id="layer1"
     transform="translate(0,-284.36218)">
    <path
       sodipodi:type="arc"
       style="fill:url(#radialGradient3797);fill-opacity:1;stroke:none"
       id="path2985"
       sodipodi:cx="143.34082"
       sodipodi:cy="343.73035"
       sodipodi:rx="18.696629"
       sodipodi:ry="18.696629"
       d="m 162.03745,343.73035 a 18.696629,18.696629 0 1 1 -37.39326,0 18.696629,18.696629 0 1 1 37.39326,0 z"
       transform="matrix(1.0697116,0,0,1.0697116,-133.33334,664.66984)" />
    <path
       transform="matrix(1.0697116,0,0,1.0697116,-93.333338,664.66984)"
       d="m 162.03745,343.73035 a 18.696629,18.696629 0 1 1 -37.39326,0 18.696629,18.696629 0 1 1 37.39326,0 z"
       sodipodi:ry="18.696629"
       sodipodi:rx="18.696629"
       sodipodi:cy="343.73035"
       sodipodi:cx="143.34082"
       id="path3799"
       style="fill:url(#radialGradient3801);fill-opacity:1;stroke:none"
       sodipodi:type="arc" />
    <path
       sodipodi:type="arc"
       style="fill:url(#radialGradient3811);fill-opacity:1;stroke:none"
       id="path3809"
       sodipodi:cx="143.34082"
       sodipodi:cy="343.73035"
       sodipodi:rx="18.696629"
       sodipodi:ry="18.696629"
       d="m 162.03745,343.73035 a 18.696629,18.696629 0 1 1 -37.39326,0 18.696629,18.696629 0 1 1 37.39326,0 z"
       transform="matrix(1.0697116,0,0,1.0697116,-53.333338,664.66984)" />
    <path
       transform="matrix(1.0697116,0,0,1.0697116,-13.333338,664.66984)"
       d="m 162.03745,343.73035 a 18.696629,18.696629 0 1 1 -37.39326,0 18.696629,18.696629 0 1 1 37.39326,0 z"
       sodipodi:ry="18.696629"
       sodipodi:rx="18.696629"
       sodipodi:cy="343.73035"
       sodipodi:cx="143.34082"
       id="path3819"
       style="fill:url(#radialGradient3821);fill-opacity:1;stroke:none"
       sodipodi:type="arc" />
    <path
       sodipodi:type="arc"
       style="fill:url(#radialGradient3835);fill-opacity:1;stroke:none"
       id="path3829"
       sodipodi:cx="143.34082"
       sodipodi:cy="343.73035"
       sodipodi:rx="18.696629"
       sodipodi:ry="18.696629"
       d="m 162.03745,343.73035 a 18.696629,18.696629 0 1 1 -37.39326,0 18.696629,18.696629 0 1 1 37.39326,0 z"
       transform="matrix(1.0697116,0,0,1.0697116,26.666662,664.66984)" />
    <path
       transform="matrix(1.0697116,0,0,1.0697116,66.666662,664.66984)"
       d="m 162.03745,343.73035 a 18.696629,18.696629 0 1 1 -37.39326,0 18.696629,18.696629 0 1 1 37.39326,0 z"
       sodipodi:ry="18.696629"
       sodipodi:rx="18.696629"
       sodipodi:cy="343.73035"
       sodipodi:cx="143.34082"
       id="path3843"
       style="fill:url(#radialGradient3845);fill-opacity:1;stroke:none"
       sodipodi:type="arc" />
    <path
       sodipodi:type="arc"
       style="fill:url(#radialGradient3855);fill-opacity:1;stroke:none"
       id="path3853"
       sodipodi:cx="143.34082"
       sodipodi:cy="343.73035"
       sodipodi:rx="18.696629"
       sodipodi:ry="18.696629"
       d="m 162.03745,343.73035 a 18.696629,18.696629 0 1 1 -37.39326,0 18.696629,18.696629 0 1 1 37.39326,0 z"
       transform="matrix(1.0697116,0,0,1.0697116,106.66666,664.66984)" />
    <path
       sodipodi:type="arc"
       style="fill:#ff6600;fill-opacity:1;stroke:none"
       id="path3882"
       sodipodi:cx="127.5206"
       sodipodi:cy="551.31085"
       sodipodi:rx="73.827713"
       sodipodi:ry="73.827713"
       d="m 201.34831,551.31085 a 73.827713,73.827713 0 1 1 -147.655424,0 73.827713,73.827713 0 1 1 147.655424,0 z"
       transform="matrix(1.0836039,0,0,1.0836039,-58.181823,334.95957)" />
    <g
       id="g3892">
      <path
         transform="translate(0,284.36218)"
         inkscape:connector-curvature="0"
         id="path3888"
         d="m 80.14982,647.65043 c 0,0 75.65544,4.99375 71.16105,0.24968 -4.49438,-4.74407 -71.16105,-0.24968 -71.16105,-0.24968 z"
         style="fill:#ffffff;stroke:none;stroke-width:1px;stroke-linecap:butt;stroke-linejoin:miter;stroke-opacity:1" />
      <path
         style="fill:#ffffff;stroke:none"
         d="m 78.844286,932.01261 c 0,0 -75.6554393,4.99375 -71.1610493,0.24968 4.4943803,-4.74407 71.1610493,-0.24968 71.1610493,-0.24968 z"
         id="path3890"
         inkscape:connector-curvature="0" />
    </g>
    <g
       id="g3896"
       transform="matrix(0,1,-1,0,1011.6946,852.70045)">
      <path
         style="fill:#ffffff;stroke:none"
         d="m 80.14982,647.65043 c 0,0 75.65544,4.99375 71.16105,0.24968 -4.49438,-4.74407 -71.16105,-0.24968 -71.16105,-0.24968 z"
         id="path3898"
         inkscape:connector-curvature="0"
         transform="translate(0,284.36218)" />
      <path
         inkscape:connector-curvature="0"
         id="path3900"
         d="m 78.844286,932.01261 c 0,0 -75.6554393,4.99375 -71.1610493,0.24968 4.4943803,-4.74407 71.1610493,-0.24968 71.1610493,-0.24968 z"
         style="fill:#ffffff;stroke:none" />
    </g>
    <g
       id="g3902"
       transform="matrix(0.70710678,0.70710678,-0.70710678,0.70710678,682.44732,216.82142)">
      <path
         style="fill:#ffffff;stroke:none"
         d="m 80.14982,647.65043 c 0,0 75.65544,4.99375 71.16105,0.24968 -4.49438,-4.74407 -71.16105,-0.24968 -71.16105,-0.24968 z"
         id="path3904"
         inkscape:connector-curvature="0"
         transform="translate(0,284.36218)" />
      <path
         inkscape:connector-curvature="0"
         id="path3906"
         d="m 78.844286,932.01261 c 0,0 -75.6554393,4.99375 -71.1610493,0.24968 4.4943803,-4.74407 71.1610493,-0.24968 71.1610493,-0.24968 z"
         style="fill:#ffffff;stroke:none" />
    </g>
    <g
       transform="matrix(-0.70710678,0.70710678,-0.70710678,-0.70710678,794.87317,1535.1478)"
       id="g3908">
      <path
         transform="translate(0,284.36218)"
         inkscape:connector-curvature="0"
         id="path3910"
         d="m 80.14982,647.65043 c 0,0 75.65544,4.99375 71.16105,0.24968 -4.49438,-4.74407 -71.16105,-0.24968 -71.16105,-0.24968 z"
         style="fill:#ffffff;stroke:none" />
      <path
         style="fill:#ffffff;stroke:none"
         d="m 78.844286,932.01261 c 0,0 -75.6554393,4.99375 -71.1610493,0.24968 4.4943803,-4.74407 71.1610493,-0.24968 71.1610493,-0.24968 z"
         id="path3912"
         inkscape:connector-curvature="0" />
    </g>
  </g>
</svg>
